<?xml version="1.0" encoding="UTF-8" standalone="no"?>
<svg
   xmlns:dc="http://purl.org/dc/elements/1.1/"
   xmlns:cc="http://creativecommons.org/ns#"
   xmlns:rdf="http://www.w3.org/1999/02/22-rdf-syntax-ns#"
   xmlns:svg="http://www.w3.org/2000/svg"
   xmlns="http://www.w3.org/2000/svg"
   xmlns:sodipodi="http://sodipodi.sourceforge.net/DTD/sodipodi-0.dtd"
   xmlns:inkscape="http://www.inkscape.org/namespaces/inkscape"
   id="Layer_1"
   viewBox="0 0 131.50025 134.50201"
   version="1.1"
   inkscape:version="0.91 r13725"
   sodipodi:docname="affiliate.svg"
   width="131.50024"
   height="134.50201">
  <metadata
     id="metadata4321">
    <rdf:RDF>
      <cc:Work
         rdf:about="">
        <dc:format>image/svg+xml</dc:format>
        <dc:type
           rdf:resource="http://purl.org/dc/dcmitype/StillImage" />
        <dc:title>1-</dc:title>
      </cc:Work>
    </rdf:RDF>
  </metadata>
  <defs
     id="defs4319" />
  <sodipodi:namedview
     pagecolor="#ffffff"
     bordercolor="#666666"
     borderopacity="1"
     objecttolerance="10"
     gridtolerance="10"
     guidetolerance="10"
     inkscape:pageopacity="0"
     inkscape:pageshadow="2"
     inkscape:window-width="1358"
     inkscape:window-height="775"
     id="namedview4317"
     showgrid="false"
     inkscape:zoom="1.03"
     inkscape:cx="14.772775"
     inkscape:cy="53.734906"
     inkscape:window-x="33"
     inkscape:window-y="37"
     inkscape:window-maximized="0"
     inkscape:current-layer="Layer_1"
     fit-margin-top="0"
     fit-margin-left="0"
     fit-margin-right="0"
     fit-margin-bottom="0" />
  <style
     id="style4265">.st0,.st1{fill:#fff;stroke:#7d7d7d;stroke-width:2.5;stroke-linecap:round;stroke-linejoin:round}.st1{fill:#b2b2b2}.st2{fill:#a7eefe}.st3{fill:#a0e784}.st4{fill:#cbed8b}.st5{fill:#f2f2f2}.st6{fill:#d0f096}.st7{fill:#d0ef95}.st8,.st9{fill:#a9e98f;stroke:#a9e98f;stroke-width:2;stroke-linecap:round;stroke-linejoin:round}.st9{fill:none}.st10{fill:#b0e44f}.st11{fill:#79e6fd}.st12{fill:#b5f1fe}.st13{fill:#e0e0e0}.st14{fill:#fff;stroke:#b2b2b2;stroke-width:2.5;stroke-linecap:round;stroke-linejoin:round}</style>
  <title
     id="title4267">1-</title>
  <path
     class="st0"
     d="m 4.1764576,36.055657 0,83.978493 124.9725724,0 0,-83.978493"
     id="path4269"
     inkscape:connector-curvature="0"
     style="fill:#ffffff;stroke:#7d7d7d;stroke-width:2.53900623;stroke-linecap:round;stroke-linejoin:round" />
  <path
     class="st1"
     d="m 129.14903,29.984037 c 0,-3.095024 -2.39947,-5.67421 -5.49879,-5.67421 l -113.974989,0 c -2.9993419,0 -5.4987934,2.476019 -5.4987934,5.67421 l 0,5.26154 124.9725724,0 0,-5.26154 z"
     id="path4271"
     inkscape:connector-curvature="0"
     style="fill:#b2b2b2;stroke:#7d7d7d;stroke-width:2.53900623;stroke-linecap:round;stroke-linejoin:round" />
  <path
     class="st2"
     d="m 13.270765,33.0638 c 0.99978,-0.103168 1.799605,-1.031674 1.699627,-2.063349 -0.09998,-0.928507 -0.799825,-1.753847 -1.699627,-1.753847 -0.999781,0.103167 -1.799606,1.031675 -1.699628,2.063349 0.09998,0.928508 0.799825,1.753847 1.699628,1.753847 z"
     id="path4273"
     inkscape:connector-curvature="0"
     style="fill:#d35f5f" />
  <path
     class="st3"
     d="m 22.528055,32.86128 c 0.999781,-0.103168 1.799605,-1.031674 1.699627,-2.063349 -0.09998,-0.928507 -0.799824,-1.753846 -1.699627,-1.753846 -0.99978,0.103167 -1.799605,1.031674 -1.699627,2.063349 0.09998,0.928507 0.799825,1.753846 1.699627,1.753846 z"
     id="path4275"
     inkscape:connector-curvature="0"
     style="fill:#a0e784" />
  <path
     class="st4"
     d="m 18.047221,32.86128 c 0.99978,-0.103168 1.799605,-1.031674 1.699627,-2.063349 -0.09998,-0.928507 -0.799825,-1.753846 -1.699627,-1.753846 -0.999781,0.103167 -1.799606,1.031674 -1.699628,2.063349 0.09998,0.928507 0.799825,1.753846 1.699628,1.753846 z"
     id="path4277"
     inkscape:connector-curvature="0"
     style="fill:#ff7f2a" />
  <path
     class="st5"
     d="m 45.963591,47.81675 41.79083,0 0,61.59106 -41.79083,0 z"
     id="path4279"
     inkscape:connector-curvature="0"
     style="fill:#f2f2f2" />
  <path
     d="m 73.070534,0.30611247 c 0.06492,0.0467142 0.144794,0.0761066 0.216749,0.1148543 0.02936,-0.0216239 0.06381,-0.0527598 0.09178,-0.0725371 -0.10238,-0.0170536 -0.206491,-0.0239864 -0.308525,-0.0423193 z"
     id="path4283"
     inkscape:connector-curvature="0" />
  <path
     class="st10"
     d="m 53.062033,92.900939 26.594165,0 c 0.09998,0 0.199956,0.103168 0.199956,0.206335 l 0,7.840746 c 0,0.10317 -0.09998,0.20633 -0.199956,0.20633 l -26.594165,0 c -0.09998,0 -0.199956,-0.10316 -0.199956,-0.20633 l 0,-7.840746 c 0,-0.103167 0.09998,-0.206335 0.199956,-0.206335 z"
     id="path4289"
     inkscape:connector-curvature="0"
     style="fill:#ff9955" />
  <ellipse
     class="st11"
     cx="66.859009"
     cy="71.132729"
     id="circle4291"
     style="fill:#79e6fd"
     rx="15.496599"
     ry="15.99096" />
  <path
     class="st12"
     d="m 66.859006,62.569699 c 3.299276,0 5.998684,2.785523 5.998684,6.190049 l 0,2.06335 c 0,3.404527 -2.699408,6.190049 -5.998684,6.190049 -3.299276,0 -5.998684,-2.785522 -5.998684,-6.190049 l 0,-2.06335 c 0,-3.404526 2.699408,-6.190049 5.998684,-6.190049 z"
     id="path4293"
     inkscape:connector-curvature="0"
     style="fill:#b5f1fe" />
  <path
     class="st12"
     d="m 64.759467,75.878305 3.799166,0 0,3.920364 -3.799166,0 z"
     id="path4295"
     inkscape:connector-curvature="0"
     style="fill:#b5f1fe" />
  <path
     class="st12"
     d="m 66.759028,77.735319 c -3.999123,0 -7.598333,2.372852 -9.197982,6.086882 5.398816,4.333034 12.89717,4.333034 18.395964,0.206335 -1.499671,-3.817197 -5.19886,-6.396384 -9.197982,-6.293217 z"
     id="path4297"
     inkscape:connector-curvature="0"
     style="fill:#b5f1fe" />
  <ellipse
     class="st13"
     cx="25.368111"
     cy="71.132729"
     id="circle4299"
     style="fill:#e0e0e0"
     rx="15.496599"
     ry="15.99096" />
  <path
     class="st5"
     d="m 25.36811,62.569699 c 3.299276,0 5.998684,2.785523 5.998684,6.190049 l 0,2.06335 c 0,3.404527 -2.699408,6.190049 -5.998684,6.190049 -3.299276,0 -5.998684,-2.785522 -5.998684,-6.190049 l 0,-2.06335 c 0,-3.404526 2.699408,-6.190049 5.998684,-6.190049 z"
     id="path4301"
     inkscape:connector-curvature="0"
     style="fill:#f2f2f2" />
  <path
     class="st5"
     d="m 23.168593,75.878305 3.799166,0 0,3.920364 -3.799166,0 z"
     id="path4303"
     inkscape:connector-curvature="0"
     style="fill:#f2f2f2" />
  <path
     class="st5"
     d="m 25.168154,77.735319 c -3.999122,0 -7.598333,2.372852 -9.197982,6.086882 5.398816,4.333034 12.89717,4.333034 18.395964,0.206335 -1.399693,-3.817197 -5.098881,-6.396384 -9.197982,-6.293217 z"
     id="path4305"
     inkscape:connector-curvature="0"
     style="fill:#f2f2f2" />
  <ellipse
     class="st13"
     cx="108.44987"
     cy="71.132729"
     id="circle4307"
     style="fill:#e0e0e0"
     rx="15.496599"
     ry="15.99096" />
  <path
     class="st5"
     d="m 108.34989,62.569699 c 3.29928,0 5.99869,2.785523 5.99869,6.190049 l 0,2.06335 c 0,3.404527 -2.69941,6.190049 -5.99869,6.190049 -3.29927,0 -5.99867,-2.785522 -5.99867,-6.190049 l 0,-2.06335 c 0.1,-3.404526 2.6994,-6.190049 5.99867,-6.190049 z"
     id="path4309"
     inkscape:connector-curvature="0"
     style="fill:#f2f2f2" />
  <path
     class="st5"
     d="m 106.25035,75.878305 3.79917,0 0,3.920364 -3.79917,0 z"
     id="path4311"
     inkscape:connector-curvature="0"
     style="fill:#f2f2f2" />
  <path
     class="st5"
     d="m 108.24991,77.735319 c -3.99912,0 -7.59832,2.372852 -9.197968,6.086882 5.398808,4.333034 12.897158,4.333034 18.395958,0.206335 -1.3997,-3.817197 -5.09888,-6.396384 -9.19799,-6.293217 z"
     id="path4313"
     inkscape:connector-curvature="0"
     style="fill:#f2f2f2" />
  <path
     class="st14"
     d="m 63.159818,115.70108 0,-12.58653 c 0,-1.03169 0.799824,-1.85703 1.799605,-1.85703 0.99978,0 1.799605,0.82534 1.799605,1.85703 l 0,5.36475 3.699188,0 c 2.099539,0 3.699188,1.75387 3.699188,3.81724 l 0,6.49959 c 0,4.2299 -3.299276,7.63444 -7.298398,7.63444 -4.099101,0 -7.298399,-3.40453 -7.298399,-7.63444 l 0,-3.81722 c 0,-2.06337 1.599649,-3.81725 3.599211,-4.02357"
     id="path4315"
     inkscape:connector-curvature="0"
     style="fill:#ffffff;stroke:#b2b2b2;stroke-width:2.53900623;stroke-linecap:round;stroke-linejoin:round" />
</svg>
