<?xml version="1.0" encoding="UTF-8" standalone="no"?>
<svg
   xmlns:dc="http://purl.org/dc/elements/1.1/"
   xmlns:cc="http://creativecommons.org/ns#"
   xmlns:rdf="http://www.w3.org/1999/02/22-rdf-syntax-ns#"
   xmlns:svg="http://www.w3.org/2000/svg"
   xmlns="http://www.w3.org/2000/svg"
   xmlns:sodipodi="http://sodipodi.sourceforge.net/DTD/sodipodi-0.dtd"
   xmlns:inkscape="http://www.inkscape.org/namespaces/inkscape"
   id="Layer_1"
   viewBox="0 0 128.8 144.5"
   version="1.1"
   inkscape:version="0.91 r13725"
   sodipodi:docname="payment.svg"
   width="128.8"
   height="144.5">
  <metadata
     id="metadata4470">
    <rdf:RDF>
      <cc:Work
         rdf:about="">
        <dc:format>image/svg+xml</dc:format>
        <dc:type
           rdf:resource="http://purl.org/dc/dcmitype/StillImage" />
        <dc:title>1-</dc:title>
      </cc:Work>
    </rdf:RDF>
  </metadata>
  <defs
     id="defs4468" />
  <sodipodi:namedview
     pagecolor="#ffffff"
     bordercolor="#666666"
     borderopacity="1"
     objecttolerance="10"
     gridtolerance="10"
     guidetolerance="10"
     inkscape:pageopacity="0"
     inkscape:pageshadow="2"
     inkscape:window-width="1269"
     inkscape:window-height="690"
     id="namedview4466"
     showgrid="false"
     inkscape:zoom="1.49"
     inkscape:cx="-46.854281"
     inkscape:cy="64.25"
     inkscape:window-x="144"
     inkscape:window-y="138"
     inkscape:window-maximized="0"
     inkscape:current-layer="Layer_1" />
  <style
     id="style4442">.st0{fill:#d5f7ff;stroke:#909090;stroke-width:3;stroke-linecap:round;stroke-linejoin:round}.st1{fill:#a3eeff}.st2{fill:#73e6ff}.st3{fill:#f9f9f9;stroke:#7d7d7d;stroke-width:2.5;stroke-linecap:round;stroke-linejoin:round}.st4{fill:#b0e44f}.st5{fill:#b2b2b2}.st6,.st7{fill:none;stroke:#7d7d7d;stroke-width:2.5;stroke-linecap:round;stroke-linejoin:round}.st7{fill:#e0e0e0;stroke:#909090;stroke-width:3}.st8{fill:#909090}.st9{fill:none;stroke:#909090;stroke-width:3;stroke-linecap:round;stroke-linejoin:round}</style>
  <title
     id="title4444">1-</title>
  <path
     class="st0"
     d="m 23.039753,92.312416 c -1.583399,1.303214 -3.9585,1.042574 -5.190034,-0.521284 L 1.9277474,72.677367 C 0.60824712,71.113514 0.87214718,68.854614 2.4555476,67.551403 L 35.003225,40.965892 c 1.583401,-1.303209 3.958502,-1.042568 5.190036,0.521285 l 15.921973,19.113765 c 1.319501,1.563855 1.0556,3.909634 -0.527801,5.125965 l -6.509535,5.299726"
     id="path4446"
     inkscape:connector-curvature="0"
     style="fill:#d5f7ff;stroke:#909090;stroke-width:2.62266111;stroke-linecap:round;stroke-linejoin:round" />
  <path
     class="st1"
     d="m 30.956757,73.893698 -6.861402,-9.296241 c -0.351866,-0.347523 -0.351866,-0.868808 0,-1.21633 l 0.08797,-0.08688 3.606634,-3.562111 c 1.055601,-1.042568 2.199168,-2.172019 3.782569,-2.258899 1.0556,0 2.1112,0.434404 2.814933,1.30321 2.551034,2.953946 2.375101,6.081653 0.175933,8.253671 l -1.759333,1.737615 c -0.2639,0.260643 -0.2639,0.695046 0.175933,1.303212 l 1.935268,2.606423"
     id="path4448"
     inkscape:connector-curvature="0"
     style="fill:#a3eeff" />
  <path
     class="st2"
     d="m 26.382489,74.328101 -6.773436,-9.29624 c -0.351867,-0.347523 -0.351867,-0.868808 0,-1.216331 l 0.08797,-0.08688 3.606634,-3.56211 c 1.0556,-1.042569 2.199167,-2.172019 3.782568,-2.258899 1.0556,0 2.111201,0.434403 2.814934,1.303211 2.551034,2.953946 2.375101,6.081652 0.175933,8.253671 l -1.759333,1.737614 c -0.2639,0.260642 -0.2639,0.695047 0.175933,1.303212 l 1.935267,2.606422"
     id="path4450"
     inkscape:connector-curvature="0"
     style="fill:#73e6ff" />
  <path
     class="st3"
     d="m 43.008195,111.51307 0,17.54991 83.128525,0 0,-109.035349 -83.128525,0 0,58.210103"
     id="path4452"
     inkscape:connector-curvature="0"
     style="fill:#f9f9f9;stroke:#7d7d7d;stroke-width:2.18555117;stroke-linecap:round;stroke-linejoin:round" />
  <path
     class="st4"
     d="m 60.425601,47.395068 c -1.671367,-0.173761 -3.254767,-0.868807 -4.574268,-1.824495 l 1.495434,-2.172019 c 0.879667,0.781927 2.023235,1.303211 3.166802,1.563854 l 0,-3.040826 c -2.814936,-0.781927 -4.134436,-1.824496 -4.134436,-4.083395 0,-2.172019 1.583401,-3.475231 4.046468,-3.735873 l 0,-1.21633 2.023235,0 0,1.129449 c 1.3195,0.173761 2.551034,0.695046 3.606635,1.390093 l -1.319501,2.258899 c -0.703733,-0.521284 -1.583401,-0.868808 -2.375101,-1.12945 l 0,3.040826 c 2.902902,0.781927 4.222402,1.998257 4.222402,4.083396 0,2.172018 -1.671368,3.47523 -4.134435,3.735871 l 0,1.911377 -2.023235,0 0,-1.911377 z m 0.08797,-10.946974 c -0.703733,0 -1.231535,0.521284 -1.319501,1.216331 0,0.608165 0.2639,0.955688 1.319501,1.390092 l 0,-2.606423 z m 3.166801,7.384863 c 0,-0.695045 -0.351867,-1.042569 -1.407467,-1.390091 l 0,2.693303 c 0.967629,-0.173761 1.407462,-0.608166 1.407462,-1.303212 z"
     id="path4454"
     style="fill:#ff9955"
     inkscape:connector-curvature="0" />
  <path
     class="st6"
     d="m 52.244698,60.253419 63.248052,0 M 52.244698,76.587 l 63.248052,0 m -63.248052,16.246701 63.248052,0 M 52.244698,68.42021 l 63.248052,0 m -63.248052,32.58029 63.248052,0 m -63.248052,-16.24671 63.248052,0 m -31.580039,25.62984 31.580039,0 m -15.833995,-48.392596 0,30.321382"
     id="path4458"
     inkscape:connector-curvature="0"
     style="fill:none;stroke:#7d7d7d;stroke-width:2.18555117;stroke-linecap:round;stroke-linejoin:round" />
  <path
     class="st7"
     d="m 24.095355,80.931038 43.367583,-6.168534 c 2.1112,-0.260642 4.046469,1.12945 4.398335,3.214588 l 3.694602,25.456068 c 0.263899,2.08514 -1.143567,3.99651 -3.25477,4.34404 l -43.367582,6.16853 c -2.1112,0.26064 -4.046468,-1.12945 -4.398335,-3.21458 L 20.840587,85.275076 c -0.2639,-2.085138 1.143567,-3.996516 3.254768,-4.344038 z"
     id="path4460"
     inkscape:connector-curvature="0"
     style="fill:#e0e0e0;stroke:#909090;stroke-width:2.62266111;stroke-linecap:round;stroke-linejoin:round" />
  <path
     class="st8"
     d="m 21.19421,87.636107 51.022749,-7.252746 1.065169,7.309546 -51.022749,7.252743 z"
     id="path4462"
     inkscape:connector-curvature="0"
     style="fill:#909090" />
  <path
     class="st9"
     d="m 36.850526,105.77894 25.510343,-3.64899 m -2.111201,-5.99478 7.301236,-1.04257"
     id="path4464"
     inkscape:connector-curvature="0"
     style="fill:none;stroke:#909090;stroke-width:2.62266111;stroke-linecap:round;stroke-linejoin:round" />
  <text
     xml:space="preserve"
     style="font-style:normal;font-variant:normal;font-weight:normal;font-stretch:normal;font-size:10.92775536px;line-height:125%;font-family:sans-serif;-inkscape-font-specification:'sans-serif, Normal';text-align:start;letter-spacing:0px;word-spacing:0px;writing-mode:lr-tb;text-anchor:start;fill:#b3b3b3;fill-opacity:1;stroke:none;stroke-width:1px;stroke-linecap:butt;stroke-linejoin:miter;stroke-opacity:1"
     x="70.954163"
     y="44.523197"
     id="text5016"
     sodipodi:linespacing="125%"
     transform="scale(1.0062303,0.99380827)"><tspan
       sodipodi:role="line"
       id="tspan5018"
       x="70.954163"
       y="44.523197">PAYMENT</tspan></text>
</svg>
